<svg width="40" height="54" viewBox="0 0 40 54" fill="none" xmlns="http://www.w3.org/2000/svg">
<g filter="url(#filter0_d_314_248)">
<ellipse cx="19" cy="17.5135" rx="18" ry="17.5135" fill="#D27B90" style="fill:#D27B90;fill:color(display-p3 0.8235 0.4824 0.5647);fill-opacity:1;"/>
<path d="M11.8675 18.4203L9.4126 20.8752C9.28179 21.006 9.17802 21.1613 9.10723 21.3322C9.03644 21.5032 9 21.6863 9 21.8713C9 22.0563 9.03644 22.2395 9.10723 22.4104C9.17802 22.5813 9.28179 22.7366 9.4126 22.8674L13.646 27.1009C13.9104 27.3646 14.2686 27.5128 14.6421 27.5128C15.0156 27.5128 15.3738 27.3646 15.6382 27.1009L18.0932 24.646L17.0976 23.6504L14.6427 26.1053C14.6425 26.1052 14.6423 26.105 14.6421 26.1048L10.4087 21.8716L12.8634 19.4165L11.8675 18.4203Z" fill="#F9F0F5" style="fill:#F9F0F5;fill:color(display-p3 0.9765 0.9412 0.9608);fill-opacity:1;"/>
<path d="M28.5873 12.1595L24.3539 7.92606C24.0895 7.66229 23.7313 7.51416 23.3578 7.51416C22.9843 7.51416 22.6261 7.66229 22.3617 7.92606L19.9067 10.381L20.9029 11.3769L23.358 8.92218L27.5914 13.1556L25.1365 15.6105L26.1324 16.6067L28.5873 14.1518C28.7181 14.021 28.8219 13.8657 28.8927 13.6948C28.9635 13.5239 28.9999 13.3407 28.9999 13.1558C28.9999 12.9708 28.9635 12.7876 28.8927 12.6167C28.8219 12.4458 28.7181 12.2905 28.5873 12.1597V12.1595Z" fill="#F9F0F5" style="fill:#F9F0F5;fill:color(display-p3 0.9765 0.9412 0.9608);fill-opacity:1;"/>
<path d="M19.0214 14.6961L18.3384 15.379L19.0214 16.062L19.7043 15.379L19.0214 14.6961Z" fill="#F9F0F5" style="fill:#F9F0F5;fill:color(display-p3 0.9765 0.9412 0.9608);fill-opacity:1;"/>
<path d="M19.0214 18.965L18.3384 19.6479L19.0214 20.3309L19.7043 19.6479L19.0214 18.965Z" fill="#F9F0F5" style="fill:#F9F0F5;fill:color(display-p3 0.9765 0.9412 0.9608);fill-opacity:1;"/>
<path d="M21.1556 16.8305L20.4727 17.5134L21.1556 18.1964L21.8386 17.5134L21.1556 16.8305Z" fill="#F9F0F5" style="fill:#F9F0F5;fill:color(display-p3 0.9765 0.9412 0.9608);fill-opacity:1;"/>
<path d="M16.8871 16.8306L16.2041 17.5135L16.8871 18.1965L17.5701 17.5135L16.8871 16.8306Z" fill="#F9F0F5" style="fill:#F9F0F5;fill:color(display-p3 0.9765 0.9412 0.9608);fill-opacity:1;"/>
<path d="M21.8746 26.613C22.2717 27.0048 22.8077 27.2236 23.3655 27.2217C23.9234 27.2199 24.4579 26.9974 24.8523 26.6029L28.0896 23.3656C28.4858 22.9693 28.7085 22.4318 28.7085 21.8714C28.7085 21.311 28.4858 20.7736 28.0896 20.3773L27.7478 20.0355L17.1826 9.47031L16.1362 8.42419C15.74 8.02792 15.2025 7.8053 14.6421 7.8053C14.0817 7.8053 13.5442 8.02792 13.148 8.42419L9.91064 11.6615C9.51437 12.0578 9.29175 12.5952 9.29175 13.1556C9.29175 13.716 9.51437 14.2535 9.91064 14.6498L11.3089 16.0481L21.8638 26.6029C21.8673 26.6063 21.8709 26.6095 21.8746 26.613ZM10.9068 13.6537C10.8413 13.5883 10.7895 13.5106 10.7541 13.4252C10.7187 13.3397 10.7004 13.2481 10.7004 13.1556C10.7004 13.0631 10.7187 12.9715 10.7541 12.8861C10.7895 12.8006 10.8413 12.723 10.9068 12.6576L14.1441 9.42026C14.2095 9.35485 14.2871 9.30297 14.3726 9.26757C14.458 9.23217 14.5496 9.21395 14.6421 9.21395C14.7346 9.21395 14.8262 9.23217 14.9117 9.26757C14.9971 9.30297 15.0748 9.35485 15.1402 9.42026L18.0039 12.284L13.7705 16.5175L10.9068 13.6537ZM14.7666 17.5135L19 13.2801L23.2336 17.5135L19.0004 21.7472L14.7666 17.5135ZM24.2295 18.5096L27.0933 21.3734C27.1587 21.4388 27.2106 21.5164 27.246 21.6019C27.2814 21.6873 27.2996 21.7789 27.2996 21.8714C27.2996 21.9639 27.2814 22.0555 27.246 22.141C27.2106 22.2264 27.1587 22.3041 27.0933 22.3695L23.856 25.6068C23.7906 25.6722 23.7129 25.7241 23.6275 25.7595C23.542 25.7949 23.4504 25.8131 23.3579 25.8131C23.2654 25.8131 23.1738 25.7949 23.0884 25.7595C23.0029 25.7241 22.9253 25.6722 22.8599 25.6068L19.9961 22.743L24.2295 18.5096Z" fill="#F9F0F5" style="fill:#F9F0F5;fill:color(display-p3 0.9765 0.9412 0.9608);fill-opacity:1;"/>
<path d="M19.5 50L25.9952 29.75H13.0048L19.5 50Z" fill="#D27B90" style="fill:#D27B90;fill:color(display-p3 0.8235 0.4824 0.5647);fill-opacity:1;"/>
</g>
<defs>
<filter id="filter0_d_314_248" x="0" y="0" width="40" height="54" filterUnits="userSpaceOnUse" color-interpolation-filters="sRGB">
<feFlood flood-opacity="0" result="BackgroundImageFix"/>
<feColorMatrix in="SourceAlpha" type="matrix" values="0 0 0 0 0 0 0 0 0 0 0 0 0 0 0 0 0 0 127 0" result="hardAlpha"/>
<feOffset dx="1" dy="2"/>
<feGaussianBlur stdDeviation="1"/>
<feComposite in2="hardAlpha" operator="out"/>
<feColorMatrix type="matrix" values="0 0 0 0 0 0 0 0 0 0 0 0 0 0 0 0 0 0 0.25 0"/>
<feBlend mode="normal" in2="BackgroundImageFix" result="effect1_dropShadow_314_248"/>
<feBlend mode="normal" in="SourceGraphic" in2="effect1_dropShadow_314_248" result="shape"/>
</filter>
</defs>
</svg>
